<?xml version="1.0" encoding="UTF-8" standalone="no"?><svg xmlns="http://www.w3.org/2000/svg" xmlns:xlink="http://www.w3.org/1999/xlink" contentScriptType="application/ecmascript" contentStyleType="text/css" height="308px" preserveAspectRatio="none" style="width:327px;height:308px;" version="1.1" viewBox="0 0 327 308" width="327px" zoomAndPan="magnify"><defs><filter height="300%" id="f1t3eiun5gmo65" width="300%" x="-1" y="-1"><feGaussianBlur result="blurOut" stdDeviation="2.0"/><feColorMatrix in="blurOut" result="blurOut2" type="matrix" values="0 0 0 0 0 0 0 0 0 0 0 0 0 0 0 0 0 0 .4 0"/><feOffset dx="4.0" dy="4.0" in="blurOut2" result="blurOut3"/><feBlend in="SourceGraphic" in2="blurOut3" mode="normal"/></filter></defs><g><!--MD5=[fa1e3283224feb76407c84b7e90ed808]
entity Database--><path d="M70,253 C70,243 113,243 113,243 C113,243 156,243 156,253 L156,278.2969 C156,288.2969 113,288.2969 113,288.2969 C113,288.2969 70,288.2969 70,278.2969 L70,253 " fill="#FFFFFF" filter="url(#f1t3eiun5gmo65)" style="stroke: #000000; stroke-width: 1.5;"/><path d="M70,253 C70,263 113,263 113,263 C113,263 156,263 156,253 " fill="none" style="stroke: #000000; stroke-width: 1.5;"/><text fill="#000000" font-family="sans-serif" font-size="14" lengthAdjust="spacingAndGlyphs" textLength="66" x="80" y="279.9951">Database</text><!--MD5=[66134357e496828e6d3e8eb8657d2618]
entity Filesystem--><path d="M161.5,18 C161.5,8 208,8 208,8 C208,8 254.5,8 254.5,18 L254.5,43.2969 C254.5,53.2969 208,53.2969 208,53.2969 C208,53.2969 161.5,53.2969 161.5,43.2969 L161.5,18 " fill="#FFFFFF" filter="url(#f1t3eiun5gmo65)" style="stroke: #000000; stroke-width: 1.5;"/><path d="M161.5,18 C161.5,28 208,28 208,28 C208,28 254.5,28 254.5,18 " fill="none" style="stroke: #000000; stroke-width: 1.5;"/><text fill="#000000" font-family="sans-serif" font-size="14" lengthAdjust="spacingAndGlyphs" textLength="73" x="171.5" y="44.9951">Filesystem</text><!--MD5=[8a3a9f61a3fda9a38d7acccfc63385bb]
entity Driver--><ellipse cx="26" cy="265.5" fill="#FEFECE" filter="url(#f1t3eiun5gmo65)" rx="8" ry="8" style="stroke: #A80036; stroke-width: 2.0;"/><text fill="#000000" font-family="sans-serif" font-size="14" lengthAdjust="spacingAndGlyphs" textLength="40" x="6" y="295.4951">Driver</text><!--MD5=[ac5aab9175f5fadc518e70cdc77e76e2]
entity AI_REST--><ellipse cx="297" cy="265.5" fill="#FEFECE" filter="url(#f1t3eiun5gmo65)" rx="8" ry="8" style="stroke: #A80036; stroke-width: 2.0;"/><text fill="#000000" font-family="sans-serif" font-size="14" lengthAdjust="spacingAndGlyphs" textLength="37" x="278.5" y="295.4951">REST</text><!--MD5=[d98cb1d0eeb2b90d1ef52cfc0fcf4fea]
entity Model--><rect fill="#FEFECE" filter="url(#f1t3eiun5gmo65)" height="36.2969" style="stroke: #A80036; stroke-width: 1.5;" width="62" x="191" y="247.5"/><rect fill="#FEFECE" height="5" style="stroke: #A80036; stroke-width: 1.5;" width="10" x="186" y="252.5"/><rect fill="#FEFECE" height="5" style="stroke: #A80036; stroke-width: 1.5;" width="10" x="186" y="273.7969"/><text fill="#000000" font-family="sans-serif" font-size="14" lengthAdjust="spacingAndGlyphs" textLength="42" x="201" y="270.4951">Model</text><!--MD5=[bd5f618b12816bd4b75416c1e6e531a6]
entity REST--><ellipse cx="85" cy="148" fill="#FEFECE" filter="url(#f1t3eiun5gmo65)" rx="8" ry="8" style="stroke: #A80036; stroke-width: 2.0;"/><text fill="#000000" font-family="sans-serif" font-size="14" lengthAdjust="spacingAndGlyphs" textLength="37" x="66.5" y="177.9951">REST</text><!--MD5=[df6a39b053164d23cc3ecae9c3484a54]
entity CLI--><ellipse cx="237" cy="148" fill="#FEFECE" filter="url(#f1t3eiun5gmo65)" rx="8" ry="8" style="stroke: #A80036; stroke-width: 2.0;"/><text fill="#000000" font-family="sans-serif" font-size="14" lengthAdjust="spacingAndGlyphs" textLength="20" x="227" y="177.9951">CLI</text><!--MD5=[b1435b213846e3ddcd1e6c1cd6b83b9a]
entity Server--><rect fill="#FEFECE" filter="url(#f1t3eiun5gmo65)" height="36.2969" style="stroke: #A80036; stroke-width: 1.5;" width="64" x="129" y="130"/><rect fill="#FEFECE" height="5" style="stroke: #A80036; stroke-width: 1.5;" width="10" x="124" y="135"/><rect fill="#FEFECE" height="5" style="stroke: #A80036; stroke-width: 1.5;" width="10" x="124" y="156.2969"/><text fill="#000000" font-family="sans-serif" font-size="14" lengthAdjust="spacingAndGlyphs" textLength="44" x="139" y="152.9951">Server</text><!--MD5=[194a92f280a7d2c2f105939ff984a7cf]
entity Frontend--><rect fill="#FEFECE" filter="url(#f1t3eiun5gmo65)" height="36.2969" style="stroke: #A80036; stroke-width: 1.5;" width="83" x="43.5" y="12.5"/><rect fill="#FEFECE" height="5" style="stroke: #A80036; stroke-width: 1.5;" width="10" x="38.5" y="17.5"/><rect fill="#FEFECE" height="5" style="stroke: #A80036; stroke-width: 1.5;" width="10" x="38.5" y="38.7969"/><text fill="#000000" font-family="sans-serif" font-size="14" lengthAdjust="spacingAndGlyphs" textLength="63" x="53.5" y="35.4951">Frontend</text><!--MD5=[b01a67f4ac363cc98715dc437bc04e8f]
link Driver to Database--><path d="M35.1758,265.5 C46.7278,265.5 58.2798,265.5 69.8319,265.5 " fill="none" id="Driver-Database" style="stroke: #A80036; stroke-width: 1.0;"/><!--MD5=[f71b5dbe787d8eaf39bab82bb800d539]
link Model to AI_REST--><path d="M253.0547,265.5 C264.6132,265.5 276.1718,265.5 287.7303,265.5 " fill="none" id="Model-AI_REST" style="stroke: #A80036; stroke-width: 1.0;"/><!--MD5=[670ba30e5b0150fad5b1e467b364c314]
link Server to Driver--><path d="M140.2021,166.1019 C111.9555,190.6869 62.3077,233.8988 38.9014,254.271 " fill="none" id="Server-&gt;Driver" style="stroke: #A80036; stroke-width: 1.0; stroke-dasharray: 7.0,7.0;"/><polygon fill="#A80036" points="35.1118,257.5693,44.5267,254.6779,38.8834,254.2867,39.2746,248.6434,35.1118,257.5693" style="stroke: #A80036; stroke-width: 1.0;"/><text fill="#000000" font-family="sans-serif" font-size="13" lengthAdjust="spacingAndGlyphs" textLength="63" x="106" y="209.0669">read/write</text><!--MD5=[d5836e3e2ad694093b56dbf79cf561c3]
link Server to AI_REST--><path d="M182.0931,166.2059 C204.2404,185.3241 240.0759,216.2658 271,243 C275.1997,246.6307 279.7794,250.5929 283.9087,254.1665 " fill="none" id="Server-&gt;AI_REST" style="stroke: #A80036; stroke-width: 1.0; stroke-dasharray: 7.0,7.0;"/><polygon fill="#A80036" points="287.8571,257.584,283.6698,248.6696,284.0765,254.3118,278.4343,254.7186,287.8571,257.584" style="stroke: #A80036; stroke-width: 1.0;"/><text fill="#000000" font-family="sans-serif" font-size="13" lengthAdjust="spacingAndGlyphs" textLength="23" x="235" y="209.0669">use</text><!--MD5=[efe4442582b1086395ef91e28b0fd93a]
link Server to CLI--><path d="M193.0625,148 C204.619,148 216.1755,148 227.7319,148 " fill="none" id="Server-CLI" style="stroke: #A80036; stroke-width: 1.0;"/><!--MD5=[8a592fa43ad78716d3e3e6f72b148305]
link REST to Server--><path d="M94.2031,148 C105.7708,148 117.3385,148 128.9062,148 " fill="none" id="REST-Server" style="stroke: #A80036; stroke-width: 1.0;"/><!--MD5=[545eb33e44e8f2acf8bca91845530198]
link Frontend to REST--><path d="M85,48.6019 C85,72.003 85,112.2803 85,133.6737 " fill="none" id="Frontend-&gt;REST" style="stroke: #A80036; stroke-width: 1.0; stroke-dasharray: 7.0,7.0;"/><polygon fill="#A80036" points="85,138.931,89,129.931,85,133.931,81,129.931,85,138.931" style="stroke: #A80036; stroke-width: 1.0;"/><text fill="#000000" font-family="sans-serif" font-size="13" lengthAdjust="spacingAndGlyphs" textLength="23" x="86" y="96.0669">use</text><!--MD5=[bf57d75d5191f7d3357677cfc2b030ce]
@startuml
() "Driver"
Driver - Database
database "Database" {
}
database "Filesystem" {
}

() "REST" as AI_REST
[Model]
Model - AI_REST

() "REST"
() "CLI"
[Server]
[Server] ..> Driver : read/write
[Server] ..> AI_REST : use
Server - CLI
REST - Server


[Frontend]
Frontend ..> REST : use




@enduml

PlantUML version 1.2019.12(Sun Nov 03 10:24:54 GMT 2019)
(APACHE source distribution)
Java Runtime: OpenJDK Runtime Environment
JVM: OpenJDK 64-Bit Server VM
Java Version: 1.8.0_222-b10
Operating System: Linux
Default Encoding: UTF-8
Language: en
Country: US
--></g></svg>