<?xml version="1.0" encoding="UTF-8" standalone="no"?>
<!DOCTYPE svg PUBLIC "-//W3C//DTD SVG 1.1//EN"
 "http://www.w3.org/Graphics/SVG/1.1/DTD/svg11.dtd">
<!-- Generated by graphviz version 2.40.1 (0)
 -->
<!-- Title: G Pages: 1 -->
<svg width="722pt" height="228pt"
 viewBox="0.00 0.00 721.96 228.00" xmlns="http://www.w3.org/2000/svg" xmlns:xlink="http://www.w3.org/1999/xlink">
<g id="graph0" class="graph" transform="scale(1 1) rotate(0) translate(4 224)">
<title>G</title>
<polygon fill="#ffffff" stroke="transparent" points="-4,4 -4,-224 717.9562,-224 717.9562,4 -4,4"/>
<g id="clust1" class="cluster">
<title>cluster_1</title>
<polygon fill="none" stroke="#d3d3d3" points="8,-98 8,-212 705.9562,-212 705.9562,-98 8,-98"/>
<text text-anchor="middle" x="356.9781" y="-196.8" font-family="Times,serif" font-size="14.00" fill="#000000">Server</text>
</g>
<g id="clust2" class="cluster">
<title>cluster_2</title>
<polygon fill="none" stroke="#d3d3d3" points="460.0727,-106 460.0727,-181 697.9562,-181 697.9562,-106 460.0727,-106"/>
<text text-anchor="middle" x="579.0144" y="-165.8" font-family="Times,serif" font-size="14.00" fill="#000000">Model</text>
</g>
<!-- fetch -->
<g id="node1" class="node">
<title>fetch</title>
<ellipse fill="#d3d3d3" stroke="#000000" cx="50.4469" cy="-124" rx="34.394" ry="18"/>
<text text-anchor="middle" x="50.4469" y="-120.3" font-family="Times,serif" font-size="14.00" fill="#000000">fetch</text>
</g>
<!-- convert -->
<g id="node2" class="node">
<title>convert</title>
<ellipse fill="#d3d3d3" stroke="#000000" cx="167.0398" cy="-129" rx="46.2923" ry="18"/>
<text text-anchor="middle" x="167.0398" y="-125.3" font-family="Times,serif" font-size="14.00" fill="#000000">convert</text>
</g>
<!-- fetch&#45;&gt;convert -->
<g id="edge1" class="edge">
<title>fetch&#45;&gt;convert</title>
<path fill="none" stroke="#000000" d="M84.798,-125.4731C92.909,-125.821 101.7686,-126.2009 110.5724,-126.5784"/>
<polygon fill="#000000" stroke="#000000" points="110.6928,-130.0867 120.8336,-127.0185 110.9928,-123.0932 110.6928,-130.0867"/>
</g>
<!-- db -->
<g id="node7" class="node">
<title>db</title>
<path fill="none" stroke="#000000" d="M194.0398,-86.7273C194.0398,-88.5331 181.938,-90 167.0398,-90 152.1416,-90 140.0398,-88.5331 140.0398,-86.7273 140.0398,-86.7273 140.0398,-57.2727 140.0398,-57.2727 140.0398,-55.4669 152.1416,-54 167.0398,-54 181.938,-54 194.0398,-55.4669 194.0398,-57.2727 194.0398,-57.2727 194.0398,-86.7273 194.0398,-86.7273"/>
<path fill="none" stroke="#000000" d="M194.0398,-86.7273C194.0398,-84.9214 181.938,-83.4545 167.0398,-83.4545 152.1416,-83.4545 140.0398,-84.9214 140.0398,-86.7273"/>
<text text-anchor="middle" x="167.0398" y="-68.3" font-family="Times,serif" font-size="14.00" fill="#000000">db</text>
</g>
<!-- fetch&#45;&gt;db -->
<g id="edge6" class="edge">
<title>fetch&#45;&gt;db</title>
<path fill="none" stroke="#000000" d="M76.9037,-112.2004C92.7766,-105.1211 113.1924,-96.0157 130.5791,-88.2613"/>
<polygon fill="#000000" stroke="#000000" points="132.1714,-91.3835 139.8787,-84.1138 129.3202,-84.9905 132.1714,-91.3835"/>
</g>
<!-- fs -->
<g id="node8" class="node">
<title>fs</title>
<path fill="none" stroke="#000000" d="M194.0398,-32.7273C194.0398,-34.5331 181.938,-36 167.0398,-36 152.1416,-36 140.0398,-34.5331 140.0398,-32.7273 140.0398,-32.7273 140.0398,-3.2727 140.0398,-3.2727 140.0398,-1.4669 152.1416,0 167.0398,0 181.938,0 194.0398,-1.4669 194.0398,-3.2727 194.0398,-3.2727 194.0398,-32.7273 194.0398,-32.7273"/>
<path fill="none" stroke="#000000" d="M194.0398,-32.7273C194.0398,-30.9214 181.938,-29.4545 167.0398,-29.4545 152.1416,-29.4545 140.0398,-30.9214 140.0398,-32.7273"/>
<text text-anchor="middle" x="167.0398" y="-14.3" font-family="Times,serif" font-size="14.00" fill="#000000">fs</text>
</g>
<!-- fetch&#45;&gt;fs -->
<g id="edge7" class="edge">
<title>fetch&#45;&gt;fs</title>
<path fill="none" stroke="#000000" d="M62.8926,-107.1793C76.0392,-90.1554 98.0003,-63.7407 120.8939,-45 124.126,-42.3542 127.6476,-39.8043 131.2572,-37.3983"/>
<polygon fill="#000000" stroke="#000000" points="133.1373,-40.3507 139.7442,-32.0682 129.4143,-34.4228 133.1373,-40.3507"/>
</g>
<!-- align -->
<g id="node3" class="node">
<title>align</title>
<ellipse fill="#d3d3d3" stroke="#000000" cx="282.9827" cy="-130" rx="33.5952" ry="18"/>
<text text-anchor="middle" x="282.9827" y="-126.3" font-family="Times,serif" font-size="14.00" fill="#000000">align</text>
</g>
<!-- convert&#45;&gt;align -->
<g id="edge2" class="edge">
<title>convert&#45;&gt;align</title>
<path fill="none" stroke="#000000" d="M213.1966,-129.3981C221.7268,-129.4717 230.6134,-129.5483 239.0746,-129.6213"/>
<polygon fill="#000000" stroke="#000000" points="239.102,-133.1216 249.1319,-129.708 239.1625,-126.1218 239.102,-133.1216"/>
</g>
<!-- chunk -->
<g id="node4" class="node">
<title>chunk</title>
<ellipse fill="#d3d3d3" stroke="#000000" cx="392.4262" cy="-131" rx="39.7935" ry="18"/>
<text text-anchor="middle" x="392.4262" y="-127.3" font-family="Times,serif" font-size="14.00" fill="#000000">chunk</text>
</g>
<!-- align&#45;&gt;chunk -->
<g id="edge3" class="edge">
<title>align&#45;&gt;chunk</title>
<path fill="none" stroke="#000000" d="M317.0114,-130.3109C325.1295,-130.3851 333.9602,-130.4658 342.625,-130.545"/>
<polygon fill="#000000" stroke="#000000" points="342.6363,-134.0451 352.6679,-130.6367 342.7003,-127.0454 342.6363,-134.0451"/>
</g>
<!-- retrain -->
<g id="node5" class="node">
<title>retrain</title>
<ellipse fill="#d3d3d3" stroke="#000000" cx="510.9689" cy="-132" rx="42.7926" ry="18"/>
<text text-anchor="middle" x="510.9689" y="-128.3" font-family="Times,serif" font-size="14.00" fill="#000000">retrain</text>
</g>
<!-- chunk&#45;&gt;retrain -->
<g id="edge4" class="edge">
<title>chunk&#45;&gt;retrain</title>
<path fill="none" stroke="#000000" d="M432.2289,-131.3358C440.3581,-131.4043 449.037,-131.4776 457.553,-131.5494"/>
<polygon fill="#000000" stroke="#000000" points="457.7828,-135.0514 467.812,-131.6359 457.8419,-128.0516 457.7828,-135.0514"/>
</g>
<!-- evaluate -->
<g id="node6" class="node">
<title>evaluate</title>
<ellipse fill="#d3d3d3" stroke="#000000" cx="639.9106" cy="-132" rx="50.0912" ry="18"/>
<text text-anchor="middle" x="639.9106" y="-128.3" font-family="Times,serif" font-size="14.00" fill="#000000">evaluate</text>
</g>
<!-- retrain&#45;&gt;evaluate -->
<g id="edge5" class="edge">
<title>retrain&#45;&gt;evaluate</title>
<path fill="none" stroke="#000000" d="M553.9046,-132C562.1189,-132 570.8601,-132 579.5036,-132"/>
<polygon fill="#000000" stroke="#000000" points="579.5679,-135.5001 589.5679,-132 579.5679,-128.5001 579.5679,-135.5001"/>
</g>
</g>
</svg>
